<?xml version="1.0" encoding="UTF-8" standalone="no"?>
<!-- Created with Inkscape (http://www.inkscape.org/) -->

<svg
   width="100%"
   height="auto"
   viewBox="0 0 105.83334 26.458334"
   version="1.1"
   id="title_animation"
   xmlns="http://www.w3.org/2000/svg"
   xmlns:svg="http://www.w3.org/2000/svg">
  <g>
    <g
       id="has_a_website_text"
       transform="translate(2.5065597,-53.109419)">
      <path
         style="fill:#ff9c00;fill-opacity:1"
         d="m 92.138487,69.39352 6.459585,-0.0052 c -0.01208,-1.042313 -0.182767,-1.874318 -0.777024,-2.483056 -0.581874,-0.62396 -1.318502,-0.96886 -2.209885,-0.96886 -0.903762,0 -1.665151,0.3449 -2.284167,0.96886 -0.619015,0.608738 -1.015185,1.438146 -1.188509,2.488219 z m 7.290242,0.926846 -7.26749,-0.0297 c 0,0 -0.0012,1.625462 1.240818,2.899117 0.689302,0.706811 1.587228,1.111704 2.485732,1.111704 0.521354,0 1.220944,-0.335084 1.645604,-0.556851 0.402847,-0.210378 1.062134,-0.76898 1.287663,-0.976143 0.110929,-0.114854 0.172964,-0.1574 0.239412,-0.161265 0.09409,-0.0054 0.166205,-1.8e-4 0.221669,0.09825 0.06654,0.09844 0.06767,0.185843 0.06767,0.317067 0,0.426525 -0.533396,0.847508 -1.198005,1.339764 -0.739314,0.470308 -1.50489,0.765374 -2.259191,0.765374 -1.120355,0 -2.336567,-0.407691 -3.215568,-1.442547 -0.866623,-1.034858 -1.299932,-2.290381 -1.299932,-3.766573 0,-1.384883 0.408549,-2.541487 1.22565,-3.469816 0.8171,-0.943544 1.819905,-1.415316 3.008414,-1.415316 0.901852,0.01111 1.924985,0.300975 2.806728,1.27442 0.20247,0.223526 1.01297,1.327533 1.010535,3.084695 z M 26.229647,71.91316 c 0,-0.590712 -0.181756,-1.045719 -0.545271,-1.365023 -0.363514,-0.319304 -0.801872,-0.534835 -1.315068,-0.64659 -0.513195,-0.11175 -1.026392,-0.231496 -1.539588,-0.359217 -0.513196,-0.127712 -0.951553,-0.391147 -1.315067,-0.790276 -0.363516,-0.399129 -0.545273,-0.949929 -0.545273,-1.652396 0,-0.782292 0.256599,-1.428883 0.769797,-1.939768 0.523887,-0.510884 1.181421,-0.766329 1.972599,-0.766329 1.28728,-0.02237 2.197123,1.383887 2.197123,1.101599 v -0.0958 c 0,-0.447024 0.112256,-0.670537 0.336784,-0.670537 0.213831,0 0.320748,0.223513 0.320748,0.670537 v 1.652395 c 0,0.43106 -0.106919,0.646591 -0.320748,0.646591 -0.192448,0 -0.304709,-0.183599 -0.336784,-0.550799 -0.04277,-0.542817 -0.256597,-0.973876 -0.641496,-1.29318 -0.384899,-0.319301 -0.882057,-0.478953 -1.491478,-0.478953 -0.59873,0 -1.095888,0.175614 -1.491477,0.526851 -0.395589,0.335267 -0.593384,0.758346 -0.593384,1.269231 0,0.478955 0.181757,0.846154 0.54527,1.101596 0.363515,0.255445 0.80187,0.439045 1.315068,0.550798 0.513196,0.09578 1.026392,0.223513 1.53959,0.383167 0.513196,0.143685 0.95155,0.447024 1.315065,0.910013 0.363515,0.447024 0.545272,1.053701 0.545272,1.82003 0,0.910017 -0.299366,1.66836 -0.898094,2.275038 -0.588037,0.59071 -1.33645,0.886067 -2.245235,0.886067 -1.377852,-0.02237 -2.517871,-1.813762 -2.517871,-1.17253 v 0.14278 c 0,0.43106 -0.106918,0.64659 -0.320749,0.64659 -0.224522,0 -0.336784,-0.21553 -0.336784,-0.64659 v -1.987664 c 0,-0.431059 0.112257,-0.646589 0.336784,-0.646589 0.213833,0 0.320749,0.175617 0.320749,0.52685 v 0.167633 c 0,0.542817 0.240561,1.01379 0.721683,1.41292 0.48112,0.383164 1.063814,0.574745 1.748075,0.574745 0.705646,0 1.26581,-0.236483 1.764115,-0.622642 0.648127,-0.502264 0.705645,-1.599284 0.705645,-1.580552 z m 41.866758,-5.755865 c -1.119227,-0.02859 -2.367472,1.388414 -2.553281,1.715641 -0.103477,0.182216 -0.685508,0.713329 -0.699547,2.167144 -0.01339,1.386903 0.142606,1.692314 0.806713,2.725335 0.664107,1.013892 1.415116,1.467254 2.360191,1.467254 0.932303,0 1.788171,-0.547132 2.452278,-1.561025 0.47594,-0.866536 0.698575,-1.220063 0.713415,-2.635606 0.01339,-1.277807 -0.05581,-1.483606 -0.5427,-2.331509 -0.640366,-1.043611 -1.462092,-1.519779 -2.537069,-1.547234 z m -3.549443,-7.861766 v 9.835662 c 0.932304,-1.970391 2.081721,-2.955588 3.448249,-2.955588 1.162187,0 2.121797,0.285042 3.108169,1.593836 0.697117,0.924986 0.92899,1.474209 0.92899,3.253302 0,1.798223 -0.314964,2.173582 -1.056984,3.481864 -0.948824,1.158106 -1.830758,1.623246 -2.980175,1.623246 -1.404841,0 -2.554258,-0.67071 -3.448249,-2.660233 v 2.552468 h -1.819908 c -0.344825,0 -0.517237,-0.145242 -0.517237,-0.546974 0,-0.3826 0.172412,-0.5739 0.517237,-0.5739 h 1.034474 V 59.360781 h -1.034474 c -0.344825,0 -0.517237,-0.08963 -0.517237,-0.491351 0,-0.3826 0.172412,-0.573901 0.517237,-0.573901 z m 13.461654,13.641023 c 0,-0.590712 -0.181756,-1.045719 -0.54527,-1.365023 -0.363514,-0.319304 -0.801872,-0.534834 -1.315068,-0.64659 -0.513195,-0.11175 -1.026392,-0.231496 -1.539588,-0.359216 -0.513196,-0.127712 -0.951553,-0.391147 -1.315067,-0.790277 -0.363516,-0.399129 -0.545273,-0.949928 -0.545273,-1.652396 0,-0.782292 0.256599,-1.428883 0.769796,-1.939768 0.523888,-0.510884 1.181422,-0.766329 1.9726,-0.766329 1.287279,-0.02237 2.197122,1.383888 2.197122,1.101599 v -0.0958 c 0,-0.447024 0.112257,-0.670537 0.336785,-0.670537 0.213831,0 0.320748,0.223513 0.320748,0.670537 v 1.652395 c 0,0.43106 -0.106919,0.646591 -0.320748,0.646591 -0.192448,0 -0.304709,-0.183599 -0.336785,-0.550799 -0.04276,-0.542816 -0.256596,-0.973876 -0.641495,-1.29318 -0.384899,-0.319301 -0.882057,-0.478953 -1.491478,-0.478953 -0.59873,0 -1.095888,0.175615 -1.491477,0.526851 -0.395589,0.335268 -0.593384,0.758347 -0.593384,1.269231 0,0.478955 0.181757,0.846154 0.54527,1.101596 0.363514,0.255445 0.80187,0.439045 1.315068,0.550799 0.513196,0.09578 1.026392,0.223512 1.539589,0.383166 0.513196,0.143685 0.951551,0.447024 1.315066,0.910013 0.363515,0.447024 0.545272,1.053701 0.545272,1.82003 0,0.910017 -0.299366,1.668361 -0.898094,2.275038 -0.588037,0.59071 -1.33645,0.886067 -2.245235,0.886067 -1.377852,-0.02237 -2.517871,-1.813762 -2.517871,-1.17253 v 0.142781 c 0,0.431059 -0.106919,0.646589 -0.320749,0.646589 -0.224522,0 -0.336784,-0.21553 -0.336784,-0.646589 v -1.987665 c 0,-0.431059 0.112257,-0.646589 0.336784,-0.646589 0.213833,0 0.320749,0.175617 0.320749,0.526851 v 0.167633 c 0,0.542816 0.240561,1.013789 0.721683,1.412919 0.48112,0.383164 1.063814,0.574745 1.748075,0.574745 0.705645,0 1.265809,-0.236482 1.764114,-0.622642 0.648128,-0.502263 0.705645,-1.599284 0.705645,-1.580552 z m -60.099069,0.517499 v -2.159557 c -0.732859,-0.239951 -1.514574,-0.359925 -2.345146,-0.359925 -0.96493,0 -1.752752,0.23995 -2.363468,0.719852 -0.5985,0.463904 -0.897751,1.07178 -0.897751,1.823627 0,0.623869 0.189321,1.127763 0.567966,1.511695 0.378642,0.367918 0.885535,0.551889 1.52068,0.551889 0.647357,0 1.239752,-0.159974 1.77718,-0.479909 0.549644,-0.319936 1.129823,-0.855822 1.740539,-1.607672 z m -5.386508,-6.382692 c 0,-0.351929 0.415287,-0.647867 1.245859,-0.887819 0.830572,-0.255949 1.477931,-0.38392 1.942074,-0.38392 0.855002,0 1.557322,0.279942 2.106966,0.839827 0.561858,0.559886 0.842787,1.263741 0.842787,2.111567 V 74.1577 h 0.989359 c 0.329786,0 0.494679,0.159973 0.494679,0.479909 0,0.335925 -0.164893,0.503894 -0.494679,0.503894 h -1.740537 v -1.607672 c -1.087073,1.327724 -2.293482,1.751933 -3.539339,1.751933 -0.855002,0 -1.505167,-0.04034 -2.030384,-0.600173 -0.525214,-0.575874 -0.787821,-1.319728 -0.787821,-2.23154 0,-1.039786 0.354215,-1.879614 1.062644,-2.519482 0.720643,-0.655868 1.655038,-0.9838 2.803182,-0.9838 0.720644,0 1.551216,0.167966 2.491718,0.503897 v -1.703652 c 0,-0.591878 -0.207644,-1.063781 -0.622929,-1.41571 -0.415288,-0.367926 -0.958824,-0.551887 -1.63061,-0.551887 -0.561858,0 -1.142038,0.127974 -1.740538,0.383922 -0.5985,0.255949 -0.946608,0.38392 -1.044322,0.38392 -0.09772,0 -0.183215,-0.04799 -0.256501,-0.143966 -0.06107,-0.09598 -0.0916,-0.207959 -0.0916,-0.335932 z m 25.941223,6.356942 v -2.159556 c -0.732859,-0.239951 -1.514574,-0.359926 -2.345146,-0.359926 -0.964929,0 -1.752752,0.23995 -2.363467,0.719852 -0.598501,0.463904 -0.897752,1.07178 -0.897752,1.823628 0,0.623868 0.189321,1.127762 0.567966,1.511694 0.378642,0.367918 0.885535,0.551889 1.52068,0.551889 0.647358,0 1.239752,-0.159974 1.777181,-0.479909 0.549643,-0.319935 1.129823,-0.855822 1.740538,-1.607672 z m -5.386508,-6.382692 c 0,-0.351929 0.415287,-0.647867 1.245859,-0.887819 0.830572,-0.255948 1.477931,-0.38392 1.942074,-0.38392 0.855002,0 1.557323,0.279942 2.106966,0.839827 0.561859,0.559886 0.842787,1.263742 0.842787,2.111567 v 6.406686 h 0.989359 c 0.329787,0 0.494679,0.159974 0.494679,0.479909 0,0.335926 -0.164892,0.503894 -0.494679,0.503894 h -1.740537 v -1.607671 c -1.087073,1.327723 -2.293482,1.751933 -3.539339,1.751933 -0.855002,0 -1.505167,-0.04034 -2.030384,-0.600173 -0.525214,-0.575874 -0.787821,-1.319729 -0.787821,-2.231541 0,-1.039785 0.354215,-1.879613 1.062644,-2.519482 0.720643,-0.655868 1.655038,-0.983799 2.803182,-0.983799 0.720644,0 1.551216,0.167965 2.491718,0.503896 v -1.703652 c 0,-0.591877 -0.207644,-1.06378 -0.622929,-1.415709 -0.415288,-0.367926 -0.958824,-0.551888 -1.63061,-0.551888 -0.561858,0 -1.142038,0.127974 -1.740538,0.383923 -0.598499,0.255948 -0.946608,0.38392 -1.044322,0.38392 -0.09772,0 -0.183215,-0.048 -0.256501,-0.143967 -0.06107,-0.09598 -0.09161,-0.207959 -0.09161,-0.335932 z M 8.4870814,68.895514 c 0,-0.907501 -0.2288777,-1.643587 -0.6866332,-2.208255 -0.4577554,-0.584835 -1.0568764,-0.877254 -1.7973632,-0.877254 -0.5654626,0 -1.0366813,0.171419 -1.4136564,0.514253 -0.3635117,0.322668 -0.8212672,0.968002 -1.3732663,1.936005 l -0.222146,0.39325 v 5.157446 c 0,0 0.6167869,-0.02177 0.9087791,0 0,0 0.5338666,-0.08054 0.5654626,0.605002 0.013051,0.283188 -0.1654502,0.604336 -0.5654626,0.607007 -2.6675969,0.01781 -2.665752,0.02825 -2.665752,0.02825 -0.39175542,-0.02118 -0.54526753,-0.21175 -0.54526753,-0.635251 0,-0.403334 0.18175583,-0.605002 0.54526753,-0.605002 H 2.1660175 V 58.020416 H 1.0754826 c -0.36351164,0 -0.54526747,-0.211752 -0.54526747,-0.635253 0,-0.403334 0.18175583,-0.605001 0.54526747,-0.605001 h 1.9185337 v 10.011057 c 0.6713794,-1.087439 1.0030229,-1.343433 1.4742417,-1.646715 0.5107069,-0.328699 1.0164863,-0.574751 1.6358025,-0.574751 0.9424376,0 1.7098512,0.403335 2.3022405,1.210003 0.6058527,0.786502 0.9087789,1.794838 0.9087789,3.025008 v 5.006195 H 10.22386 c 0.376975,0 0.565462,0.201668 0.565462,0.605002 0,0.423501 -0.188487,0.635251 -0.565462,0.635251 H 7.5783022 c -0.3635116,0 -0.5452675,-0.21175 -0.5452675,-0.635251 0,-0.403334 0.1817559,-0.605002 0.5452675,-0.605002 H 8.4870814 Z M 52.25201,75.051212 H 51.276587 L 49.438833,69.133685 47.64147,75.051212 H 46.645851 L 45.046176,62.370774 h -0.352991 c -0.301889,0 -0.452834,-0.153885 -0.452834,-0.461655 0,-0.293115 0.150945,-0.439673 0.452834,-0.439673 h 1.861649 c 0.301889,0 0.452834,0.146553 0.452834,0.439673 0,0.30777 -0.150945,0.461655 -0.452834,0.461655 h -0.820232 l 1.490849,10.986433 1.736778,-5.796526 h 0.926955 l 1.797363,5.796526 1.645332,-11.099407 h -0.778477 c -0.304969,0 -0.457454,-0.149064 -0.457454,-0.447191 0,-0.283928 0.152485,-0.425894 0.457454,-0.425894 h 1.880651 c 0.30497,0 0.457455,0.141972 0.457455,0.425894 0,0.298127 -0.406102,0.447191 -0.721322,0.447191 h -0.09237 z m 2.742554,-5.719723 6.459584,-0.0052 c -0.01207,-1.042314 -0.182766,-1.874318 -0.777022,-2.483056 -0.581874,-0.62396 -1.318503,-0.96886 -2.209886,-0.96886 -0.903761,0 -1.665152,0.3449 -2.284167,0.96886 -0.619015,0.608738 -1.015185,1.438147 -1.188509,2.488219 z m 7.290243,0.926846 -7.267492,-0.0297 c 0,0 -0.0012,1.625461 1.240819,2.899117 0.689302,0.70681 1.587228,1.111704 2.485732,1.111704 0.521355,0 1.220944,-0.335084 1.645603,-0.556851 0.402848,-0.210378 1.062135,-0.768981 1.287665,-0.976143 0.110933,-0.114848 0.172964,-0.1574 0.239411,-0.161265 0.09409,-0.0055 0.166206,-1.8e-4 0.221669,0.09825 0.06655,0.09844 0.06766,0.185843 0.06766,0.317068 0,0.426525 -0.533397,0.847508 -1.198006,1.339764 -0.739314,0.470308 -1.50489,0.765374 -2.259191,0.765374 -1.120355,0 -2.336566,-0.407691 -3.215568,-1.442547 -0.866622,-1.034858 -1.299931,-2.290381 -1.299931,-3.766573 0,-1.384883 0.408548,-2.541487 1.225649,-3.469815 0.817101,-0.943544 1.819905,-1.415317 3.008414,-1.415317 0.901852,0.01108 1.924985,0.300975 2.806728,1.27442 0.20247,0.223526 1.01297,1.327533 1.010535,3.084696 z m 20.667375,-8.538094 v 2.22183 H 81.826 v -2.22183 z m 0.0071,3.989966 0.03108,8.465092 h 1.966027 c 0.356313,0 0.534464,0.142415 0.534464,0.427275 0,0.299092 -0.178151,0.448638 -0.534464,0.448638 h -4.621396 c -0.343581,0 -0.51537,-0.149551 -0.51537,-0.448638 0,-0.284849 0.171789,-0.427275 0.51537,-0.427275 H 82.20777 V 66.617 H 80.8258 c -0.34358,0 -0.51537,-0.149551 -0.51537,-0.448638 0,-0.284851 0.17179,-0.427276 0.51537,-0.427276 z m 4.781946,-0.102728 h 2.527206 c 0.313748,0 0.470623,0.145637 0.470623,0.436888 0,0.305822 -0.156875,0.458732 -0.470623,0.458732 h -2.527206 v 5.832459 c 0,0.553391 0.08634,0.909605 0.434952,1.244553 0.348608,0.334948 0.825047,0.502421 1.429301,0.502421 0.488047,0 0.777184,-0.209225 0.955465,-0.304261 0.137062,-0.07308 0.52617,-0.649787 0.664817,-0.802071 0.08605,-0.09451 0.197259,-0.131063 0.253246,-0.131063 0.06532,0 0.125959,0.04369 0.181939,0.131063 0.05601,0.08737 0.08397,0.18932 0.08397,0.305822 0,0.320386 -0.368133,0.893022 -0.633406,1.13315 -0.160407,0.145208 -0.727479,0.56298 -1.471172,0.56298 -0.825039,0 -1.422949,-0.152331 -1.910998,-0.632908 -0.488056,-0.49514 -0.732084,-1.150473 -0.732084,-1.965997 v -5.876148 h -1.289843 c -0.325375,0 -0.488057,-0.15291 -0.488057,-0.458732 0,-0.291258 0.162682,-0.436888 0.488057,-0.436888 h 1.289843 v -4.51673 c 0,-0.3932 0.151333,-0.5898 0.395361,-0.5898 0.232402,0 0.348608,0.1966 0.348608,0.5898 z"
      />
    </g>
    <g transform="translate(-0.0552366,-0.0276183)">
      <g id="cog-h-top">
         <path
            d="m 4.8192567,5.2654291 c -0.01308,0.0013 -0.02762,0.0037 -0.04379,0.0082 -0.258706,0.06933 0.0649,0.300858 -0.167049,0.43478 -0.231948,0.133903 -0.270712,-0.262123 -0.460099,-0.07273 -0.189385,0.189381 0.206525,0.228156 0.07261,0.460105 -0.133917,0.231936 -0.365455,-0.09168 -0.434774,0.167039 -0.06932,0.258702 0.29305,0.09433 0.29305,0.362168 0,0.26783 -0.362372,0.103338 -0.29305,0.362041 0.06932,0.258704 0.300857,-0.0648 0.434774,0.167164 0.133915,0.23196 -0.261994,0.2706 -0.07261,0.45998 0.189387,0.18939 0.228151,-0.20652 0.460099,-0.0726 0.23195,0.1339 -0.09166,0.36544 0.167049,0.43476 0.258707,0.0693 0.09421,-0.29292 0.362041,-0.29292 0.267832,0 0.103458,0.36224 0.362166,0.29292 0.258706,-0.0693 -0.0649,-0.30085 0.167048,-0.43476 0.23195,-0.13393 0.270714,0.26199 0.460099,0.0726 0.189387,-0.18938 -0.206649,-0.22802 -0.07273,-0.45998 0.133915,-0.231947 0.365453,0.0915 0.434771,-0.167164 0.06932,-0.258704 -0.292925,-0.09421 -0.292925,-0.362041 0,-0.267831 0.362248,-0.103466 0.292925,-0.362168 -0.06932,-0.258703 -0.300856,0.0649 -0.434771,-0.167039 -0.133918,-0.231949 0.262119,-0.270724 0.07273,-0.460105 -0.189385,-0.189384 -0.228149,0.206646 -0.460099,0.07273 -0.231949,-0.133929 0.09166,-0.365461 -0.167048,-0.43478 -0.258707,-0.06933 -0.09434,0.292925 -0.362166,0.292925 -0.251092,0 -0.12217,-0.318341 -0.318252,-0.301037 z m 0.324267,0.963949 c 0.103032,-8e-6 0.205431,0.0424 0.278288,0.115247 0.07286,0.07284 0.115278,0.175236 0.115278,0.278271 -2e-6,0.103025 -0.04242,0.20542 -0.115279,0.278271 -0.07286,0.07284 -0.175257,0.115246 -0.278288,0.115246 -0.103019,0 -0.205404,-0.04242 -0.278251,-0.11526 -0.07285,-0.07284 -0.115257,-0.175229 -0.115261,-0.278254 2e-6,-0.103014 0.04241,-0.205403 0.11526,-0.278252 0.07285,-0.07284 0.175232,-0.115261 0.278252,-0.115261 z"
            style="fill:#ff5e00;fill-opacity:1;stroke-width:0.0106263px"
         />
      </g>
    </g>
    <g id="cog-h-bottom">
      <path
         d="m 11.912945,16.145344 c -0.01308,10e-4 -0.02762,0.004 -0.04379,0.008 -0.258706,0.0693 0.0649,0.30086 -0.16705,0.43478 -0.231948,0.1339 -0.270711,-0.26212 -0.460099,-0.0727 -0.189385,0.18938 0.206525,0.22816 0.07261,0.4601 -0.133917,0.23194 -0.365455,-0.0917 -0.434774,0.16704 -0.06932,0.25871 0.29305,0.0943 0.29305,0.36217 0,0.26783 -0.362372,0.10334 -0.29305,0.36204 0.06932,0.2587 0.300857,-0.0648 0.434774,0.16717 0.133915,0.23196 -0.261994,0.27059 -0.07261,0.45998 0.189388,0.18939 0.228151,-0.20653 0.460099,-0.0726 0.231951,0.13391 -0.09166,0.36545 0.16705,0.43477 0.258706,0.0693 0.09421,-0.29293 0.362039,-0.29293 0.267832,0 0.103458,0.36225 0.362166,0.29293 0.258706,-0.0693 -0.0649,-0.30086 0.167048,-0.43477 0.23195,-0.13392 0.270714,0.262 0.460099,0.0726 0.189387,-0.18939 -0.206649,-0.22802 -0.07273,-0.45998 0.133915,-0.23195 0.365453,0.0915 0.434771,-0.16717 0.06932,-0.2587 -0.292925,-0.0942 -0.292925,-0.36204 0,-0.26783 0.362248,-0.10346 0.292925,-0.36217 -0.06932,-0.2587 -0.300856,0.0649 -0.434771,-0.16704 -0.133918,-0.23194 0.262119,-0.27072 0.07273,-0.4601 -0.189385,-0.18938 -0.228149,0.20665 -0.460099,0.0727 -0.231949,-0.13393 0.09166,-0.36546 -0.167048,-0.43478 -0.258707,-0.0693 -0.09434,0.29293 -0.362166,0.29293 -0.25109,0 -0.122169,-0.31835 -0.31825,-0.30104 z m 0.324265,0.96395 c 0.103032,-10e-6 0.205431,0.0424 0.278288,0.11525 0.07286,0.0728 0.115278,0.17523 0.115278,0.27827 -2e-6,0.10302 -0.04242,0.20542 -0.115279,0.27827 -0.07286,0.0728 -0.175257,0.11524 -0.278288,0.11524 -0.103018,0 -0.205403,-0.0424 -0.278249,-0.11526 -0.07285,-0.0728 -0.115257,-0.17523 -0.115261,-0.27825 2e-6,-0.10301 0.04241,-0.2054 0.11526,-0.27825 0.07285,-0.0728 0.175231,-0.11526 0.27825,-0.11526 z"
         style="fill:#ff5e00;fill-opacity:1;stroke-width:0.0106263px"
      />
    </g>
    <g id="cog-a1-middle">
      <path
         d="m 13.800853,14.648136 c -0.01627,0.002 -0.03438,0.005 -0.0545,0.0102 -0.321946,0.0863 0.08076,0.37439 -0.207884,0.54105 -0.288647,0.16663 -0.336888,-0.32619 -0.57257,-0.0905 -0.23568,0.23567 0.257009,0.28392 0.09035,0.57257 -0.166651,0.28862 -0.454791,-0.11409 -0.541056,0.20786 -0.08627,0.32194 0.364687,0.11739 0.364687,0.45069 0,0.3333 -0.450954,0.1286 -0.364687,0.45054 0.08627,0.32193 0.374403,-0.0806 0.541056,0.20802 0.166652,0.28866 -0.32604,0.33673 -0.09035,0.57241 0.235682,0.23568 0.283923,-0.257 0.57257,-0.0903 0.28865,0.16663 -0.114058,0.45477 0.207884,0.54103 0.321949,0.0863 0.117237,-0.36452 0.450546,-0.36452 0.333303,0 0.128739,0.45078 0.450696,0.36452 0.321946,-0.0863 -0.08076,-0.37439 0.207883,-0.54103 0.288652,-0.16667 0.336891,0.32603 0.572572,0.0903 0.235683,-0.23568 -0.257167,-0.28375 -0.0905,-0.57241 0.166651,-0.28864 0.454788,0.11391 0.541051,-0.20802 0.08627,-0.32194 -0.364532,-0.11725 -0.364532,-0.45054 0,-0.33329 0.4508,-0.12875 0.364532,-0.45069 -0.08627,-0.32193 -0.374401,0.0808 -0.541051,-0.20786 -0.166652,-0.28865 0.326193,-0.3369 0.0905,-0.57257 -0.235681,-0.23567 -0.28392,0.25715 -0.572572,0.0905 -0.288649,-0.16667 0.114058,-0.45479 -0.207883,-0.54105 -0.32195,-0.0863 -0.117388,0.36452 -0.450696,0.36452 -0.312474,0 -0.152047,-0.39615 -0.396051,-0.37462 z m 0.403536,1.19956 c 0.12821,-10e-6 0.255649,0.0528 0.346317,0.14341 0.09067,0.0906 0.143458,0.21807 0.143458,0.34629 -2e-6,0.12821 -0.05278,0.25563 -0.143458,0.34628 -0.09068,0.0906 -0.218098,0.14341 -0.346314,0.14341 -0.128211,0 -0.255617,-0.0528 -0.346273,-0.14342 -0.09064,-0.0907 -0.143438,-0.21806 -0.143438,-0.34627 3e-6,-0.1282 0.05278,-0.25561 0.143438,-0.34626 0.09065,-0.0906 0.218069,-0.14343 0.346273,-0.14343 z"
         style="fill:#ff5e00;fill-opacity:1;stroke-width:0.0132237px"
      />
    </g>
    <g id="cog-a1-top">
      <path
         d="m 20.275619,11.230426 c -0.01,9.8e-4 -0.0209,0.003 -0.0331,0.006 -0.19548,0.0524 0.049,0.22732 -0.12622,0.32851 -0.17525,0.10117 -0.20454,-0.19805 -0.34764,-0.0549 -0.1431,0.14309 0.15604,0.17239 0.0549,0.34764 -0.10119,0.17525 -0.27613,-0.0693 -0.32851,0.12621 -0.0524,0.19547 0.22142,0.0713 0.22142,0.27365 0,0.20236 -0.27379,0.0781 -0.22142,0.27355 0.0524,0.19547 0.22732,-0.049 0.32851,0.12631 0.10118,0.17526 -0.19796,0.20445 -0.0549,0.34754 0.1431,0.14311 0.17239,-0.15604 0.34764,-0.0548 0.17525,0.10118 -0.0693,0.27612 0.12622,0.3285 0.19547,0.0524 0.0712,-0.22133 0.27355,-0.22133 0.20236,0 0.0782,0.27371 0.27364,0.22133 0.19547,-0.0524 -0.049,-0.22732 0.12622,-0.3285 0.17525,-0.10119 0.20454,0.19796 0.34764,0.0548 0.14309,-0.14309 -0.15614,-0.17228 -0.055,-0.34754 0.10118,-0.17526 0.27613,0.0692 0.3285,-0.12631 0.0524,-0.19547 -0.22133,-0.0712 -0.22133,-0.27355 0,-0.20237 0.27371,-0.0782 0.22133,-0.27365 -0.0524,-0.19547 -0.22732,0.049 -0.3285,-0.12621 -0.10119,-0.17525 0.19805,-0.20455 0.055,-0.34764 -0.1431,-0.14309 -0.17239,0.15614 -0.34764,0.0549 -0.17526,-0.10119 0.0693,-0.27613 -0.12622,-0.32851 -0.19547,-0.0524 -0.0713,0.22133 -0.27364,0.22133 -0.18972,0 -0.0923,-0.24053 -0.24047,-0.22746 z m 0.245,0.72833 c 0.0779,0 0.15522,0.032 0.21027,0.0871 0.0551,0.055 0.0871,0.13241 0.0871,0.21026 0,0.0778 -0.032,0.15521 -0.0871,0.21025 -0.055,0.055 -0.13242,0.0871 -0.21026,0.0871 -0.0778,0 -0.1552,-0.032 -0.21024,-0.0871 -0.055,-0.055 -0.0871,-0.13239 -0.0871,-0.21024 0,-0.0778 0.032,-0.1552 0.0871,-0.21024 0.055,-0.055 0.1324,-0.0871 0.21024,-0.0871 z"
         style="fill:#ff5e00;fill-opacity:1;stroke-width:0.00802898px"
      />
    </g>
    <g id="cog-a1-s1">
      <path
         d="m 21.643316,9.9041765 c -0.0131,10e-4 -0.0276,0.0041 -0.0439,0.0082 -0.259022,0.06941 0.065,0.3012195 -0.167255,0.4352955 -0.232223,0.134064 -0.271032,-0.262426 -0.460646,-0.07278 -0.189614,0.189603 0.206774,0.228427 0.0727,0.460656 -0.134076,0.232209 -0.365899,-0.0918 -0.435297,0.167236 -0.0694,0.259012 0.293401,0.09445 0.293401,0.362594 0,0.26815 -0.362809,0.10346 -0.293401,0.362471 0.0694,0.259012 0.301221,-0.06491 0.435297,0.167369 0.134076,0.23224 -0.262312,0.270911 -0.0727,0.460523 0.189614,0.189623 0.228423,-0.206765 0.460646,-0.07268 0.232233,0.134055 -0.0918,0.365875 0.167255,0.435285 0.259012,0.06941 0.0943,-0.293277 0.362479,-0.293277 0.268152,0 0.103567,0.362675 0.362599,0.293277 0.259012,-0.06941 -0.065,-0.30122 0.167245,-0.435285 0.232223,-0.134085 0.271032,0.262303 0.460646,0.07268 0.189615,-0.189612 -0.206893,-0.228283 -0.0728,-0.460523 0.134076,-0.232229 0.365899,0.09169 0.435297,-0.167369 0.0694,-0.259011 -0.293271,-0.09435 -0.293271,-0.362471 0,-0.26815 0.362679,-0.103582 0.293271,-0.362594 -0.0694,-0.259011 -0.301221,0.06501 -0.435297,-0.167236 -0.134075,-0.232229 0.262443,-0.271053 0.0728,-0.460656 -0.189614,-0.189603 -0.228423,0.206888 -0.460646,0.07278 -0.232233,-0.134086 0.0918,-0.3658961 -0.167245,-0.4352955 -0.259022,-0.069409 -0.0944,0.2932775 -0.362599,0.2932775 -0.251392,0 -0.122326,-0.3187206 -0.31864,-0.3013946 z m 0.32465,0.9650945 c 0.103167,-10e-6 0.205684,0.04242 0.278632,0.115389 0.0729,0.07288 0.115416,0.175434 0.115416,0.278597 -10e-6,0.103143 -0.0425,0.205662 -0.115416,0.278598 -0.073,0.07288 -0.175475,0.115389 -0.278632,0.115389 -0.103147,0 -0.205644,-0.04252 -0.278582,-0.115399 -0.073,-0.07289 -0.115396,-0.175445 -0.115396,-0.278588 0,-0.103122 0.0425,-0.205651 0.115396,-0.278577 0.0729,-0.07299 0.175445,-0.115399 0.278592,-0.115399 z"
         style="fill:#ff5e00;fill-opacity:1;stroke-width:0.010639px"
      />
    </g>
    <g id="cog-s1-top">
      <path
         d="m 23.096439,11.33096 c -0.0121,0.001 -0.0256,0.003 -0.0406,0.008 -0.23973,0.0642 0.0602,0.2788 -0.1548,0.4029 -0.21493,0.12409 -0.25086,-0.2429 -0.42636,-0.0674 -0.17549,0.1755 0.19139,0.21143 0.0673,0.42637 -0.12409,0.21493 -0.33865,-0.085 -0.40289,0.15479 -0.0642,0.23973 0.27156,0.0874 0.27156,0.33561 0,0.24819 -0.3358,0.0957 -0.27156,0.33549 0.0642,0.23973 0.2788,-0.06 0.40289,0.15491 0.1241,0.21495 -0.24278,0.25075 -0.0673,0.42625 0.1755,0.1755 0.21143,-0.19138 0.42636,-0.0673 0.21495,0.12408 -0.0849,0.33864 0.1548,0.40288 0.23974,0.0642 0.0873,-0.27144 0.3355,-0.27144 0.24819,0 0.0959,0.33568 0.33561,0.27144 0.23973,-0.0642 -0.0601,-0.27879 0.15479,-0.40288 0.21495,-0.12411 0.25087,0.24278 0.42637,0.0673 0.17549,-0.1755 -0.1915,-0.2113 -0.0674,-0.42625 0.12409,-0.21494 0.33865,0.0848 0.40289,-0.15491 0.0642,-0.23973 -0.27145,-0.0873 -0.27145,-0.33549 0,-0.24819 0.33569,-0.0959 0.27145,-0.33561 -0.0642,-0.23973 -0.2788,0.0602 -0.40289,-0.15479 -0.1241,-0.21494 0.2429,-0.25087 0.0674,-0.42637 -0.1755,-0.17549 -0.21142,0.19149 -0.42637,0.0674 -0.21494,-0.12411 0.0849,-0.33866 -0.15479,-0.4029 -0.23974,-0.0642 -0.0874,0.27145 -0.33561,0.27145 -0.23268,0 -0.11322,-0.295 -0.29492,-0.27897 z m 0.30049,0.89326 c 0.0955,0 0.19037,0.0393 0.25789,0.10681 0.0675,0.0675 0.10682,0.16238 0.10682,0.25786 0,0.0955 -0.0393,0.19036 -0.10682,0.25787 -0.0675,0.0675 -0.16241,0.1068 -0.25789,0.1068 -0.0955,0 -0.19034,-0.0393 -0.25784,-0.10681 -0.0675,-0.0675 -0.10682,-0.16238 -0.10682,-0.25786 0,-0.0954 0.0393,-0.19034 0.10682,-0.25784 0.0675,-0.0675 0.16238,-0.10682 0.25785,-0.10682 z"
         style="fill:#ff5e00;fill-opacity:1;stroke-width:0.00984707px"
      />
    </g>
    <g id="cog-a2-top">
      <path
         d="m 39.895419,10.367076 c -0.0116,10e-4 -0.0245,0.003 -0.0389,0.007 -0.22964,0.0615 0.0576,0.26706 -0.14828,0.38594 -0.20589,0.11886 -0.2403,-0.23268 -0.40841,-0.0646 -0.16811,0.1681 0.18333,0.20252 0.0644,0.40841 -0.11887,0.20588 -0.3244,-0.0814 -0.38593,0.14828 -0.0615,0.22963 0.26013,0.0837 0.26013,0.32148 0,0.23774 -0.32166,0.0917 -0.26013,0.32137 0.0615,0.22963 0.26706,-0.0575 0.38593,0.14838 0.11887,0.2059 -0.23256,0.2402 -0.0644,0.4083 0.16811,0.16812 0.20252,-0.18332 0.40841,-0.0644 0.20589,0.11886 -0.0814,0.32439 0.14828,0.38593 0.22965,0.0615 0.0836,-0.26002 0.32137,-0.26002 0.23774,0 0.0918,0.32155 0.32148,0.26002 0.22964,-0.0616 -0.0576,-0.26706 0.14828,-0.38593 0.20589,-0.11888 0.2403,0.23256 0.40841,0.0644 0.16811,-0.1681 -0.18343,-0.2024 -0.0646,-0.4083 0.11887,-0.20589 0.3244,0.0813 0.38593,-0.14838 0.0615,-0.22964 -0.26002,-0.0836 -0.26002,-0.32137 0,-0.23774 0.32155,-0.0918 0.26002,-0.32148 -0.0615,-0.22964 -0.26706,0.0576 -0.38593,-0.14828 -0.11887,-0.20589 0.23267,-0.24031 0.0646,-0.40841 -0.16811,-0.16811 -0.20252,0.18343 -0.40841,0.0646 -0.20589,-0.11889 0.0814,-0.32441 -0.14828,-0.38594 -0.22964,-0.0615 -0.0837,0.26002 -0.32148,0.26002 -0.22288,0 -0.10844,-0.28258 -0.2825,-0.26722 z m 0.28784,0.85566 c 0.0915,-10e-6 0.18235,0.0376 0.24703,0.1023 0.0647,0.0647 0.10232,0.15555 0.10232,0.24701 0,0.0914 -0.0376,0.18234 -0.10233,0.24701 -0.0647,0.0647 -0.15556,0.1023 -0.24702,0.1023 -0.0914,0 -0.18233,-0.0376 -0.24699,-0.10232 -0.0647,-0.0647 -0.10231,-0.15554 -0.10231,-0.24699 0,-0.0914 0.0376,-0.18233 0.10231,-0.24699 0.0647,-0.0647 0.15554,-0.10231 0.24699,-0.10231 z"
         style="fill:#ff5e00;fill-opacity:1;stroke-width:0.00943251px"
      />
    </g>
    <g transform="translate(-0.01380915,0.01380915)">
      <g id="cog-a2-middle">
         <path
            d="m 41.462213,11.152724 c -0.008,8.3e-4 -0.0179,0.002 -0.0284,0.005 -0.16751,0.0449 0.042,0.1948 -0.10816,0.28151 -0.15018,0.0867 -0.17528,-0.16972 -0.29791,-0.0471 -0.12262,0.12262 0.13373,0.14773 0.047,0.29791 -0.0867,0.15017 -0.23662,-0.0593 -0.2815,0.10815 -0.0449,0.16751 0.18974,0.0611 0.18974,0.2345 0,0.17341 -0.23463,0.0669 -0.18974,0.23441 0.0449,0.16751 0.1948,-0.042 0.2815,0.10824 0.0867,0.15019 -0.16963,0.1752 -0.047,0.29782 0.12263,0.12263 0.14773,-0.13371 0.29791,-0.047 0.15018,0.0867 -0.0593,0.23663 0.10816,0.28151 0.16751,0.0449 0.061,-0.18967 0.23441,-0.18967 0.17342,0 0.067,0.23455 0.2345,0.18967 0.16751,-0.0449 -0.042,-0.1948 0.10816,-0.28151 0.15018,-0.0867 0.17528,0.16964 0.2979,0.047 0.12263,-0.12262 -0.1338,-0.14763 -0.0471,-0.29782 0.0867,-0.15018 0.23663,0.0593 0.28151,-0.10824 0.0449,-0.1675 -0.18966,-0.061 -0.18966,-0.23441 0,-0.17342 0.23454,-0.067 0.18966,-0.2345 -0.0449,-0.1675 -0.1948,0.042 -0.28151,-0.10815 -0.0867,-0.15018 0.16972,-0.17529 0.0471,-0.29791 -0.12262,-0.12262 -0.14772,0.1338 -0.2979,0.0471 -0.15018,-0.0867 0.0593,-0.23663 -0.10816,-0.28151 -0.16751,-0.0449 -0.0611,0.18966 -0.2345,0.18966 -0.16257,0 -0.0791,-0.20612 -0.20606,-0.19491 z m 0.20996,0.62414 c 0.0667,-10e-6 0.13301,0.0275 0.18018,0.0746 0.0472,0.0472 0.0746,0.11346 0.0746,0.18017 0,0.0667 -0.0275,0.13301 -0.0746,0.18018 -0.0472,0.0472 -0.11348,0.0746 -0.18018,0.0746 -0.0667,0 -0.133,-0.0275 -0.18017,-0.0746 -0.0472,-0.0472 -0.0746,-0.11346 -0.0746,-0.18017 0,-0.0667 0.0275,-0.13299 0.0746,-0.18016 0.0472,-0.0472 0.11346,-0.0746 0.18017,-0.0746 z"
            style="fill:#ff5e00;fill-opacity:1;stroke-width:0.0068803px"
         />
      </g>
    </g>
    <g id="cog-a2-bottom">
      <path
         d="m 41.522179,12.467606 c -0.0122,10e-4 -0.0257,0.003 -0.0408,0.008 -0.24082,0.0645 0.0604,0.28006 -0.1555,0.40472 -0.21591,0.12465 -0.25199,-0.244 -0.42829,-0.0677 -0.17629,0.17629 0.19225,0.21239 0.0676,0.4283 -0.12466,0.2159 -0.34019,-0.0853 -0.40471,0.15549 -0.0645,0.24082 0.27279,0.0878 0.27279,0.33713 0,0.24932 -0.33732,0.0962 -0.27279,0.33701 0.0645,0.24082 0.28005,-0.0603 0.40471,0.15561 0.12466,0.21593 -0.24388,0.25189 -0.0676,0.42818 0.1763,0.1763 0.21238,-0.19224 0.42829,-0.0676 0.21592,0.12464 -0.0853,0.34018 0.1555,0.40471 0.24083,0.0645 0.0877,-0.27268 0.33702,-0.27268 0.24931,0 0.0963,0.33721 0.33712,0.27268 0.24083,-0.0645 -0.0604,-0.28006 0.1555,-0.40471 0.21592,-0.12467 0.252,0.24388 0.42829,0.0676 0.1763,-0.17629 -0.19236,-0.21225 -0.0677,-0.42818 0.12466,-0.21591 0.34019,0.0852 0.40472,-0.15561 0.0645,-0.24082 -0.27268,-0.0877 -0.27268,-0.33701 0,-0.24931 0.33721,-0.0963 0.27268,-0.33713 -0.0645,-0.24082 -0.28006,0.0604 -0.40472,-0.15549 -0.12465,-0.21591 0.244,-0.25201 0.0677,-0.4283 -0.17629,-0.17629 -0.21237,0.19236 -0.42829,0.0677 -0.21591,-0.12467 0.0853,-0.34019 -0.1555,-0.40472 -0.24082,-0.0645 -0.0878,0.27268 -0.33712,0.27268 -0.23374,0 -0.11373,-0.29634 -0.29625,-0.28023 z m 0.30184,0.89731 c 0.0959,-10e-6 0.19123,0.0395 0.25905,0.10728 0.0678,0.0678 0.10731,0.16312 0.10731,0.25903 0,0.0959 -0.0395,0.19122 -0.10731,0.25904 -0.0678,0.0678 -0.16314,0.10727 -0.25905,0.10727 -0.0959,0 -0.1912,-0.0395 -0.25901,-0.10729 -0.0678,-0.0678 -0.10729,-0.16311 -0.10729,-0.25901 0,-0.0959 0.0395,-0.19121 0.10729,-0.25902 0.0678,-0.0678 0.16312,-0.10729 0.25901,-0.10729 z"
         style="fill:#ff5e00;fill-opacity:1;stroke-width:0.00989167px"
      />
    </g>
    <g id="cog-w">
      <path
         d="m 56.465052,8.3534761 c -0.0082,7.8e-4 -0.01721,0.002 -0.02736,0.005 -0.161695,0.0433 0.04059,0.18804 -0.104405,0.27174 -0.144972,0.0837 -0.169196,-0.16383 -0.287562,-0.0455 -0.118374,0.11837 0.129074,0.1426 0.04539,0.28758 -0.08371,0.14496 -0.228415,-0.0573 -0.271744,0.1044 -0.0433,0.16169 0.183165,0.059 0.183165,0.22636 0,0.1674 -0.226485,0.0646 -0.183165,0.22628 0.0433,0.1617 0.188039,-0.0405 0.271744,0.10448 0.08371,0.14499 -0.163751,0.16913 -0.04539,0.2875 0.118366,0.11838 0.14259,-0.12908 0.287562,-0.0454 0.144972,0.0837 -0.05725,0.2284099 0.104405,0.2717399 0.161695,0.0433 0.05888,-0.1830899 0.226277,-0.1830899 0.167402,0 0.06468,0.2264099 0.226358,0.1830899 0.161695,-0.0433 -0.04058,-0.1880399 0.104406,-0.2717399 0.144972,-0.0837 0.169205,0.16375 0.28757,0.0454 0.118366,-0.11837 -0.129155,-0.14252 -0.04548,-0.2875 0.08371,-0.14497 0.228405,0.0572 0.271735,-0.10448 0.0433,-0.16169 -0.183083,-0.0589 -0.183083,-0.22628 0,-0.1674 0.226412,-0.0647 0.183083,-0.22636 -0.0433,-0.16169 -0.188039,0.0406 -0.271735,-0.1044 -0.08371,-0.14498 0.163823,-0.16921 0.04548,-0.28758 -0.118365,-0.11837 -0.142598,0.12916 -0.28757,0.0455 -0.144972,-0.0837 0.05725,-0.22842 -0.104406,-0.27174 -0.161695,-0.0433 -0.05897,0.18308 -0.226358,0.18308 -0.15693,0 -0.07637,-0.19897 -0.19891,-0.18815 z m 0.202669,0.60248 c 0.06441,0 0.128403,0.0265 0.173934,0.072 0.04557,0.0455 0.07202,0.10953 0.07202,0.17393 0,0.0644 -0.02654,0.12839 -0.07202,0.17392 -0.04557,0.0455 -0.109533,0.072 -0.173934,0.072 -0.06441,0 -0.128375,-0.0265 -0.173906,-0.072 -0.04557,-0.0455 -0.07202,-0.10952 -0.07202,-0.17391 0,-0.0644 0.02645,-0.12838 0.07202,-0.17391 0.04557,-0.0455 0.109524,-0.072 0.173915,-0.072 z"
         style="fill:#ff5e00;fill-opacity:1;stroke-width:0.00664162px"
      />
    </g>
    <g id="cog-w-e1">
      <path
         d="m 57.695339,8.8428061 c -0.0131,10e-4 -0.0278,0.004 -0.0441,0.008 -0.26049,0.0698 0.0653,0.30293 -0.1682,0.43778 -0.23355,0.13482 -0.27258,-0.26393 -0.46327,-0.0732 -0.1907,0.19069 0.20795,0.22973 0.0731,0.46328 -0.13484,0.23354 -0.36798,-0.0923 -0.43778,0.16819 -0.0698,0.2604899 0.29507,0.095 0.29507,0.3646699 0,0.26968 -0.36487,0.10405 -0.29507,0.36454 0.0698,0.26049 0.30293,-0.0652 0.43778,0.16832 0.13483,0.23356 -0.26381,0.27246 -0.0731,0.46315 0.19069,0.19071 0.22972,-0.20794 0.46327,-0.0731 0.23355,0.13483 -0.0923,0.36797 0.1682,0.43777 0.2605,0.0698 0.0949,-0.29495 0.36454,-0.29495 0.26968,0 0.10417,0.36475 0.36467,0.29495 0.26049,-0.0698 -0.0653,-0.30293 0.1682,-0.43777 0.23355,-0.13485 0.27258,0.2638 0.46328,0.0731 0.19069,-0.19069 -0.20808,-0.22959 -0.0732,-0.46315 0.13483,-0.23355 0.36797,0.0922 0.43777,-0.16832 0.0698,-0.26049 -0.29495,-0.0949 -0.29495,-0.36454 0,-0.2696799 0.36475,-0.10418 0.29495,-0.3646699 -0.0698,-0.26048 -0.30294,0.0654 -0.43777,-0.16819 -0.13484,-0.23355 0.26393,-0.27259 0.0732,-0.46328 -0.1907,-0.19069 -0.22973,0.20807 -0.46328,0.0732 -0.23355,-0.13485 0.0923,-0.36798 -0.1682,-0.43778 -0.26049,-0.0698 -0.095,0.29494 -0.36467,0.29494 -0.25282,0 -0.12302,-0.32053 -0.32045,-0.30311 z m 0.32651,0.9706 c 0.10375,-10e-6 0.20685,0.0427 0.28021,0.11605 0.0734,0.0734 0.11607,0.1764399 0.11607,0.2801899 0,0.10374 -0.0427,0.20684 -0.11607,0.2802 -0.0734,0.0733 -0.17647,0.11605 -0.28021,0.11605 -0.10374,0 -0.20682,-0.0427 -0.28017,-0.11605 -0.0734,-0.0734 -0.11607,-0.17644 -0.11607,-0.28018 0,-0.10372 0.0427,-0.20682 0.11607,-0.2801699 0.0734,-0.0734 0.17644,-0.11607 0.28017,-0.11607 z"
         style="fill:#ff5e00;fill-opacity:1;stroke-width:0.0106996px"
      />
    </g>
    <g transform="translate(0,-0.01380915)">
      <g id="cog-e1-top">       
         <path
            d="m 58.644819,10.821536 c -0.011,10e-4 -0.0232,0.003 -0.0368,0.007 -0.21738,0.0583 0.0545,0.2528 -0.14037,0.36533 -0.19489,0.11251 -0.22746,-0.22025 -0.3866,-0.0611 -0.15913,0.15913 0.17354,0.19171 0.061,0.3866 -0.11252,0.19489 -0.30707,-0.077 -0.36532,0.14036 -0.0583,0.21738 0.24624,0.0793 0.24624,0.30431 0,0.22505 -0.30449,0.0868 -0.24624,0.30421 0.0582,0.21737 0.2528,-0.0544 0.36532,0.14046 0.11253,0.19491 -0.22014,0.22737 -0.061,0.3865 0.15914,0.15914 0.19171,-0.17353 0.3866,-0.061 0.1949,0.11251 -0.077,0.30707 0.14037,0.36531 0.21738,0.0583 0.0792,-0.24613 0.3042,-0.24613 0.22505,0 0.0869,0.30438 0.30431,0.24613 0.21738,-0.0582 -0.0545,-0.25279 0.14037,-0.36531 0.19489,-0.11254 0.22746,0.22014 0.3866,0.061 0.15913,-0.15913 -0.17364,-0.19159 -0.0611,-0.3865 0.11252,-0.1949 0.30707,0.0769 0.36532,-0.14046 0.0583,-0.21738 -0.24613,-0.0792 -0.24613,-0.30421 0,-0.22504 0.30438,-0.0869 0.24613,-0.30431 -0.0582,-0.21738 -0.2528,0.0545 -0.36532,-0.14036 -0.11253,-0.19489 0.22024,-0.22747 0.0611,-0.3866 -0.15914,-0.15913 -0.19171,0.17363 -0.3866,0.0611 -0.1949,-0.11254 0.077,-0.30708 -0.14037,-0.36533 -0.21738,-0.0583 -0.0793,0.24613 -0.30431,0.24613 -0.21098,0 -0.10266,-0.26748 -0.26741,-0.25294 z m 0.27246,0.80996 c 0.0866,-10e-6 0.17262,0.0356 0.23384,0.0968 0.0612,0.0612 0.0969,0.14724 0.0969,0.23382 0,0.0866 -0.0356,0.17261 -0.0969,0.23382 -0.0612,0.0612 -0.14727,0.0968 -0.23384,0.0968 -0.0866,0 -0.17259,-0.0356 -0.2338,-0.0969 -0.0612,-0.0612 -0.0968,-0.14724 -0.0968,-0.23381 0,-0.0865 0.0356,-0.17259 0.0968,-0.2338 0.0612,-0.0612 0.14724,-0.0968 0.23381,-0.0968 z"
            style="fill:#ff5e00;fill-opacity:1;stroke-width:0.00892878px"
         />
      </g>
    </g>
    <g id="cog-e1-bottom">
      <path
         d="m 64.539879,18.314386 c -0.009,9e-4 -0.0188,0.003 -0.0299,0.005 -0.17646,0.0473 0.0443,0.2052 -0.11394,0.29654 -0.1582,0.0913 -0.18464,-0.17878 -0.31381,-0.0496 -0.12917,0.12917 0.14086,0.15561 0.0495,0.31381 -0.0913,0.1582 -0.24926,-0.0625 -0.29654,0.11393 -0.0473,0.17645 0.19988,0.0643 0.19988,0.24702 0,0.18267 -0.24716,0.0705 -0.19988,0.24693 0.0473,0.17644 0.2052,-0.0442 0.29654,0.11401 0.0913,0.15821 -0.17869,0.18456 -0.0495,0.31373 0.12917,0.12917 0.15561,-0.14086 0.31381,-0.0495 0.1582,0.0913 -0.0625,0.24925 0.11394,0.29653 0.17645,0.0473 0.0643,-0.19979 0.24692,-0.19979 0.18268,0 0.0706,0.24707 0.24702,0.19979 0.17645,-0.0473 -0.0443,-0.2052 0.11393,-0.29653 0.1582,-0.0913 0.18464,0.17869 0.31381,0.0495 0.12917,-0.12917 -0.14094,-0.15552 -0.0496,-0.31373 0.0913,-0.1582 0.24926,0.0624 0.29653,-0.11401 0.0473,-0.17645 -0.19978,-0.0643 -0.19978,-0.24693 0,-0.18268 0.24707,-0.0706 0.19978,-0.24702 -0.0473,-0.17645 -0.20519,0.0443 -0.29653,-0.11393 -0.0913,-0.1582 0.17878,-0.18464 0.0496,-0.31381 -0.12917,-0.12917 -0.15561,0.14094 -0.31381,0.0496 -0.1582,-0.0914 0.0625,-0.24926 -0.11393,-0.29654 -0.17645,-0.0473 -0.0644,0.19979 -0.24702,0.19979 -0.17125,0 -0.0833,-0.21712 -0.21706,-0.20532 z m 0.22116,0.65746 c 0.0703,-10e-6 0.14011,0.0289 0.18981,0.0786 0.0497,0.0497 0.0786,0.11952 0.0786,0.18979 -1e-5,0.0703 -0.0289,0.14011 -0.0786,0.18979 -0.0497,0.0497 -0.11954,0.0786 -0.18981,0.0786 -0.0703,0 -0.14009,-0.0289 -0.18978,-0.0786 -0.0497,-0.0497 -0.0786,-0.11951 -0.0786,-0.18978 0,-0.0703 0.0289,-0.14009 0.0786,-0.18978 0.0497,-0.0497 0.11952,-0.0786 0.18978,-0.0786 z"
         style="fill:#ff5e00;fill-opacity:1;stroke-width:0.00724762px"
      />
    </g>
    <g id="cog-b-bottom">
      <path
         d="m 65.590689,16.869864 c -0.0117,0.001 -0.0248,0.003 -0.0393,0.007 -0.23241,0.0623 0.0583,0.27027 -0.15007,0.39058 -0.20837,0.12029 -0.24319,-0.23548 -0.41332,-0.0653 -0.17014,0.17013 0.18553,0.20496 0.0652,0.41333 -0.12031,0.20836 -0.32831,-0.0823 -0.39058,0.15006 -0.0623,0.2324 0.26326,0.0847 0.26326,0.32535 0,0.24061 -0.32554,0.0928 -0.26326,0.32524 0.0623,0.2324 0.27027,-0.0582 0.39058,0.15017 0.1203,0.20838 -0.23537,0.24309 -0.0652,0.41322 0.17013,0.17014 0.20495,-0.18553 0.41332,-0.0652 0.20837,0.12029 -0.0823,0.32829 0.15007,0.39057 0.23241,0.0623 0.0846,-0.26315 0.32524,-0.26315 0.2406,0 0.0929,0.32542 0.32535,0.26315 0.2324,-0.0623 -0.0583,-0.27028 0.15006,-0.39057 0.20837,-0.12032 0.2432,0.23536 0.41333,0.0652 0.17013,-0.17013 -0.18564,-0.20484 -0.0653,-0.41322 0.1203,-0.20837 0.3283,0.0822 0.39057,-0.15017 0.0623,-0.2324 -0.26314,-0.0846 -0.26314,-0.32524 0,-0.2406 0.32542,-0.093 0.26314,-0.32535 -0.0623,-0.2324 -0.27027,0.0583 -0.39057,-0.15006 -0.1203,-0.20837 0.23547,-0.2432 0.0653,-0.41333 -0.17013,-0.17013 -0.20496,0.18564 -0.41333,0.0653 -0.20837,-0.12032 0.0823,-0.32831 -0.15006,-0.39058 -0.23241,-0.0623 -0.0848,0.26315 -0.32535,0.26315 -0.22557,0 -0.10976,-0.28598 -0.2859,-0.27044 z m 0.2913,0.86596 c 0.0925,-10e-6 0.18455,0.0381 0.25,0.10353 0.0654,0.0654 0.10357,0.15742 0.10357,0.24999 0,0.0925 -0.0381,0.18453 -0.10357,0.24998 -0.0655,0.0654 -0.15744,0.10352 -0.25,0.10352 -0.0925,0 -0.18452,-0.0381 -0.24996,-0.10354 -0.0655,-0.0654 -0.10354,-0.15741 -0.10354,-0.24996 0,-0.0925 0.0381,-0.18453 0.10354,-0.24997 0.0655,-0.0654 0.15742,-0.10354 0.24996,-0.10354 z"
         style="fill:#ff5e00;fill-opacity:1;stroke-width:0.00954609px"
      />
    </g>
    <g id="cog-b-top-small">
      <path
         d="m 66.476871,4.4442081 c -0.008,7.84e-4 -0.0169,0.0023 -0.0268,0.005 -0.15857,0.04248 0.0398,0.184399 -0.10239,0.266481 -0.14216,0.08207 -0.16592,-0.160658 -0.282,-0.04458 -0.11608,0.116074 0.12658,0.139839 0.0445,0.282004 -0.0821,0.142156 -0.22399,-0.05618 -0.26648,0.10238 -0.0425,0.158561 0.17962,0.05782 0.17962,0.221977 0,0.164157 -0.2221,0.06334 -0.17962,0.221899 0.0425,0.158561 0.1844,-0.03972 0.26648,0.102457 0.0821,0.142174 -0.16058,0.165851 -0.0445,0.281927 0.11608,0.116082 0.13984,-0.12658 0.282,-0.04449 0.14217,0.08207 -0.0562,0.223987 0.10239,0.266473 0.15856,0.04249 0.0577,-0.179538 0.2219,-0.179538 0.16415,0 0.0634,0.222025 0.22197,0.179538 0.15857,-0.04249 -0.0398,-0.184399 0.10239,-0.266473 0.14216,-0.08209 0.16592,0.160578 0.282,0.04449 0.11608,-0.116076 -0.12666,-0.139753 -0.0446,-0.281927 0.0821,-0.142163 0.22399,0.05611 0.26647,-0.102457 0.0425,-0.158562 -0.17953,-0.05774 -0.17953,-0.221899 0,-0.164157 0.22202,-0.06342 0.17953,-0.221977 -0.0425,-0.158562 -0.18439,0.03978 -0.26647,-0.10238 -0.0821,-0.142165 0.16065,-0.16593 0.0446,-0.282004 -0.11608,-0.116077 -0.13984,0.126656 -0.282,0.04458 -0.14217,-0.08209 0.0562,-0.223995 -0.10239,-0.266481 -0.15856,-0.04249 -0.0578,0.179537 -0.22197,0.179537 -0.1539,0 -0.0749,-0.195115 -0.19506,-0.18451 z m 0.19874,0.590816 c 0.0631,-4e-6 0.12591,0.02599 0.17057,0.07064 0.0447,0.04465 0.0707,0.107403 0.0707,0.170555 0,0.06314 -0.026,0.125905 -0.0707,0.170556 -0.0447,0.04465 -0.10742,0.07063 -0.17057,0.07063 -0.0631,0 -0.12589,-0.026 -0.17054,-0.07064 -0.0447,-0.04465 -0.0706,-0.107401 -0.0706,-0.170546 0,-0.06314 0.026,-0.125894 0.0706,-0.170544 0.0447,-0.04465 0.1074,-0.07064 0.17054,-0.07064 z"
         style="fill:#ff5e00;fill-opacity:1;stroke-width:0.00651298px"
      />
    </g>
    <g id="cog-b-top-big">
      <path
         d="m 67.341099,5.2626167 c -0.0123,0.0012 -0.026,0.0035 -0.0412,0.0077 -0.24352,0.06524 0.0611,0.283197 -0.15724,0.409257 -0.21833,0.126042 -0.25482,-0.246736 -0.43309,-0.06847 -0.17827,0.178264 0.1944,0.214762 0.0683,0.433096 -0.12606,0.218321 -0.344,-0.08628 -0.40925,0.157234 -0.0652,0.243515 0.27585,0.0888 0.27585,0.340908 0,0.25211 -0.3411,0.09728 -0.27585,0.340789 0.0653,0.243511 0.28319,-0.061 0.40925,0.157351 0.12606,0.21835 -0.24662,0.25471 -0.0683,0.43298 0.17827,0.17828 0.21476,-0.1944 0.43309,-0.0683 0.21834,0.12604 -0.0863,0.34399 0.15724,0.40924 0.24353,0.0652 0.0887,-0.27573 0.34079,-0.27573 0.25211,0 0.0974,0.34098 0.34091,0.27573 0.24352,-0.0653 -0.0611,-0.28319 0.15724,-0.40924 0.21833,-0.12607 0.25482,0.24661 0.43309,0.0683 0.17827,-0.17827 -0.19452,-0.21463 -0.0685,-0.43298 0.12606,-0.218331 0.344,0.0862 0.40925,-0.157351 0.0653,-0.243517 -0.27573,-0.08868 -0.27573,-0.340789 0,-0.252109 0.34099,-0.0974 0.27573,-0.340908 -0.0652,-0.243517 -0.28319,0.06109 -0.40925,-0.157234 -0.12605,-0.218334 0.24674,-0.254832 0.0685,-0.433096 -0.17827,-0.178269 -0.21476,0.194516 -0.43309,0.06847 -0.21833,-0.126072 0.0863,-0.344008 -0.15724,-0.409257 -0.24352,-0.06526 -0.0888,0.27573 -0.34091,0.27573 -0.23635,0 -0.115,-0.299654 -0.29957,-0.283367 z m 0.30524,0.907365 c 0.097,-6e-6 0.19337,0.03992 0.26195,0.108488 0.0686,0.06857 0.10852,0.164947 0.10852,0.261935 -10e-6,0.09697 -0.0399,0.193363 -0.10852,0.261937 -0.0686,0.06857 -0.16497,0.108472 -0.26196,0.108472 -0.097,0 -0.19334,-0.03993 -0.26191,-0.108487 -0.0686,-0.06857 -0.10849,-0.164945 -0.10849,-0.261922 0,-0.09697 0.0399,-0.193346 0.10849,-0.261918 0.0686,-0.06857 0.16494,-0.108488 0.26192,-0.108488 z"
         style="fill:#ff5e00;fill-opacity:1;stroke-width:0.0100025px"
          />
    </g>
    <g id="cog-b-middle">
      <path
         d="m 73.023269,11.677186 c -0.0115,10e-4 -0.0243,0.003 -0.0385,0.007 -0.227215,0.0609 0.057,0.26422 -0.146719,0.38184 -0.203714,0.11759 -0.237756,-0.2302 -0.404097,-0.0639 -0.166331,0.16632 0.181392,0.20037 0.0638,0.40408 -0.117607,0.20369 -0.320971,-0.0805 -0.381854,0.1467 -0.0609,0.2272 0.257376,0.0829 0.257376,0.31806 0,0.23522 -0.31826,0.0908 -0.257376,0.31796 0.0609,0.2272 0.264237,-0.0569 0.381854,0.14681 0.117618,0.20371 -0.230105,0.23764 -0.0638,0.40396 0.166341,0.16634 0.200383,-0.18137 0.404097,-0.0637 0.203723,0.11759 -0.08051,0.32095 0.146719,0.38183 0.227225,0.0609 0.08271,-0.25726 0.317981,-0.25726 0.235225,0 0.09091,0.31814 0.318081,0.25726 0.227215,-0.0609 -0.057,-0.26423 0.146719,-0.38183 0.203714,-0.11762 0.237766,0.23009 0.404097,0.0637 0.166341,-0.16632 -0.181502,-0.20025 -0.0639,-0.40396 0.117617,-0.20371 0.320971,0.0804 0.381855,-0.14681 0.0609,-0.22721 -0.257277,-0.0827 -0.257277,-0.31796 0,-0.23522 0.318161,-0.0909 0.257277,-0.31806 -0.0609,-0.22721 -0.264238,0.057 -0.381855,-0.1467 -0.117608,-0.20371 0.230215,-0.23776 0.0639,-0.40408 -0.166331,-0.16632 -0.200383,0.18148 -0.404097,0.0639 -0.203723,-0.11762 0.08051,-0.32096 -0.146719,-0.38184 -0.227215,-0.0609 -0.08281,0.25726 -0.318081,0.25726 -0.220534,0 -0.107297,-0.27958 -0.279518,-0.26438 z m 0.284798,0.84657 c 0.09051,-1e-5 0.180432,0.0372 0.244416,0.10121 0.06401,0.064 0.101257,0.1539 0.101257,0.24439 0,0.0905 -0.0373,0.1804 -0.101257,0.24438 -0.064,0.064 -0.15392,0.10121 -0.244416,0.10121 -0.09051,0 -0.180401,-0.0373 -0.244386,-0.10122 -0.064,-0.064 -0.101226,-0.15389 -0.101226,-0.24437 0,-0.0905 0.0373,-0.18039 0.101226,-0.24437 0.064,-0.064 0.15391,-0.10122 0.244386,-0.10122 z"
         style="fill:#ff5e00;fill-opacity:1;stroke-width:0.00933266px"
      />
    </g>
    <g id="cog-b-s2">
      <path
         d="m 74.435049,10.752596 c -0.0102,10e-4 -0.0216,0.003 -0.0343,0.006 -0.20283,0.0543 0.0509,0.23588 -0.13097,0.34088 -0.18185,0.10497 -0.21224,-0.20551 -0.36072,-0.057 -0.14848,0.14847 0.16192,0.17887 0.0569,0.36072 -0.105,0.18184 -0.28652,-0.0719 -0.34087,0.13096 -0.0543,0.20283 0.22976,0.074 0.22976,0.28394 0,0.20999 -0.28411,0.081 -0.22976,0.28385 0.0543,0.20282 0.23588,-0.0508 0.34087,0.13106 0.10499,0.18186 -0.20541,0.21215 -0.0569,0.36063 0.14848,0.14848 0.17887,-0.16192 0.36072,-0.0569 0.18185,0.10497 -0.0719,0.28651 0.13097,0.34086 0.20283,0.0543 0.0739,-0.22966 0.28384,-0.22966 0.20998,0 0.0811,0.284 0.28394,0.22966 0.20283,-0.0543 -0.0509,-0.23588 0.13097,-0.34086 0.18185,-0.10501 0.21224,0.2054 0.36072,0.0569 0.14848,-0.14848 -0.16201,-0.17877 -0.057,-0.36063 0.105,-0.18185 0.28652,0.0718 0.34087,-0.13106 0.0543,-0.20283 -0.22966,-0.0739 -0.22966,-0.28385 0,-0.20998 0.28401,-0.0811 0.22966,-0.28394 -0.0543,-0.20282 -0.23588,0.0509 -0.34087,-0.13096 -0.10499,-0.18185 0.2055,-0.21225 0.057,-0.36072 -0.14848,-0.14849 -0.17887,0.16201 -0.36072,0.057 -0.18185,-0.10501 0.0719,-0.28653 -0.13097,-0.34088 -0.20283,-0.0543 -0.074,0.22966 -0.28394,0.22966 -0.19686,0 -0.0958,-0.24958 -0.24951,-0.23602 z m 0.25423,0.75575 c 0.0808,0 0.16106,0.0332 0.21818,0.0904 0.0571,0.0571 0.0904,0.13739 0.0904,0.21817 0,0.0808 -0.0332,0.16105 -0.0904,0.21816 -0.0571,0.0571 -0.13741,0.0903 -0.21818,0.0903 -0.0808,0 -0.16104,-0.0333 -0.21816,-0.0904 -0.0571,-0.0571 -0.0904,-0.13738 -0.0904,-0.21815 0,-0.0808 0.0333,-0.16104 0.0904,-0.21815 0.0571,-0.0571 0.13739,-0.0904 0.21816,-0.0904 z"
         style="fill:#ff5e00;fill-opacity:1;stroke-width:0.00833112px"
      />
    </g>
   <g transform="translate(0.01380915,-0.0276183)">
      <g
         id="cog-s2-top">
         <path
            d="m 75.254485,12.243594 c -0.008,7.8e-4 -0.0169,0.002 -0.0268,0.005 -0.15857,0.0425 0.0398,0.1844 -0.10239,0.26648 -0.14216,0.0821 -0.16592,-0.16066 -0.282,-0.0446 -0.11607,0.11607 0.12658,0.13984 0.0445,0.282 -0.0821,0.14216 -0.22399,-0.0562 -0.26648,0.10238 -0.0425,0.15856 0.17962,0.0578 0.17962,0.22198 0,0.16416 -0.2221,0.0633 -0.17962,0.2219 0.0425,0.15856 0.1844,-0.0397 0.26648,0.10246 0.0821,0.14217 -0.16058,0.16585 -0.0445,0.28192 0.11608,0.11609 0.13984,-0.12658 0.282,-0.0445 0.14217,0.0821 -0.0562,0.22399 0.10239,0.26648 0.15856,0.0425 0.0577,-0.17954 0.2219,-0.17954 0.16416,0 0.0634,0.22202 0.22197,0.17954 0.15857,-0.0425 -0.0398,-0.1844 0.10239,-0.26648 0.14216,-0.0821 0.16592,0.16058 0.282,0.0445 0.11608,-0.11607 -0.12666,-0.13975 -0.0446,-0.28192 0.0821,-0.14217 0.22399,0.0561 0.26648,-0.10246 0.0425,-0.15856 -0.17954,-0.0577 -0.17954,-0.2219 0,-0.16416 0.22203,-0.0634 0.17954,-0.22198 -0.0425,-0.15856 -0.1844,0.0398 -0.26648,-0.10238 -0.0821,-0.14216 0.16066,-0.16593 0.0446,-0.282 -0.11608,-0.11608 -0.13984,0.12666 -0.282,0.0446 -0.14216,-0.0821 0.0562,-0.22399 -0.10239,-0.26648 -0.15856,-0.0425 -0.0578,0.17954 -0.22197,0.17954 -0.1539,0 -0.0749,-0.19512 -0.19506,-0.18451 z m 0.19875,0.59082 c 0.0631,-1e-5 0.12591,0.026 0.17056,0.0706 0.0446,0.0447 0.0707,0.10741 0.0707,0.17056 0,0.0631 -0.026,0.1259 -0.0707,0.17056 -0.0447,0.0447 -0.10742,0.0706 -0.17056,0.0706 -0.0631,0 -0.1259,-0.026 -0.17055,-0.0706 -0.0447,-0.0446 -0.0706,-0.10741 -0.0706,-0.17055 0,-0.0631 0.026,-0.12589 0.0706,-0.17054 0.0447,-0.0447 0.1074,-0.0706 0.17055,-0.0706 z"
            style="fill:#ff5e00;fill-opacity:1;stroke-width:0.00651298px"
         />
      </g>
    </g>
    <g id="cog-s2-bottom">
      <path
         d="m 80.766409,19.505366 c -0.009,8.8e-4 -0.0188,0.002 -0.0298,0.006 -0.17599,0.0472 0.0442,0.20466 -0.11364,0.29576 -0.15778,0.0911 -0.18415,-0.17831 -0.31298,-0.0495 -0.12883,0.12883 0.14049,0.1552 0.0494,0.31299 -0.0911,0.15777 -0.24861,-0.0624 -0.29576,0.11363 -0.0471,0.17598 0.19935,0.0642 0.19935,0.24636 0,0.1822 -0.24651,0.0703 -0.19935,0.24628 0.0472,0.17599 0.20466,-0.0441 0.29576,0.11372 0.0911,0.15779 -0.17823,0.18407 -0.0494,0.3129 0.12883,0.12884 0.1552,-0.14049 0.31298,-0.0494 0.15779,0.0911 -0.0624,0.2486 0.11364,0.29575 0.17598,0.0472 0.0641,-0.19926 0.24628,-0.19926 0.18219,0 0.0704,0.24642 0.24636,0.19926 0.17599,-0.0472 -0.0442,-0.20466 0.11364,-0.29575 0.15778,-0.0911 0.18415,0.17822 0.31298,0.0494 0.12883,-0.12883 -0.14057,-0.15511 -0.0495,-0.3129 0.0911,-0.15778 0.2486,0.0623 0.29576,-0.11372 0.0471,-0.17598 -0.19927,-0.0641 -0.19927,-0.24628 0,-0.18219 0.24643,-0.0704 0.19927,-0.24636 -0.0472,-0.17599 -0.20466,0.0442 -0.29576,-0.11363 -0.0911,-0.15779 0.17831,-0.18416 0.0495,-0.31299 -0.12883,-0.12883 -0.1552,0.14057 -0.31298,0.0495 -0.15779,-0.0911 0.0624,-0.24861 -0.11364,-0.29576 -0.17598,-0.0472 -0.0642,0.19926 -0.24636,0.19926 -0.17081,0 -0.0831,-0.21655 -0.21649,-0.20478 z m 0.22058,0.65573 c 0.0701,0 0.13975,0.0288 0.18931,0.0784 0.0496,0.0495 0.0784,0.1192 0.0784,0.1893 0,0.0701 -0.0289,0.13973 -0.0784,0.18929 -0.0496,0.0496 -0.11922,0.0784 -0.18931,0.0784 -0.0701,0 -0.13972,-0.0289 -0.18928,-0.0784 -0.0495,-0.0495 -0.0784,-0.1192 -0.0784,-0.18928 0,-0.0701 0.0289,-0.13973 0.0784,-0.18928 0.0496,-0.0495 0.1192,-0.0784 0.18928,-0.0784 z"
         style="fill:#ff5e00;fill-opacity:1;stroke-width:0.0072286px"
      />
    </g>
    <g id="cog-i-bottom">
      <path
         d="m 82.144209,19.997346 c -0.0105,0.001 -0.0222,0.003 -0.0352,0.007 -0.20764,0.0556 0.0521,0.24147 -0.13407,0.34896 -0.18617,0.10747 -0.21728,-0.21038 -0.36928,-0.0584 -0.152,0.152 0.16576,0.18312 0.0583,0.36929 -0.10748,0.18615 -0.29332,-0.0736 -0.34895,0.13406 -0.0556,0.20764 0.2352,0.0757 0.2352,0.29068 0,0.21496 -0.29084,0.0829 -0.2352,0.29058 0.0556,0.20764 0.24147,-0.052 0.34895,0.13417 0.10748,0.18617 -0.21028,0.21718 -0.0583,0.36918 0.152,0.15201 0.18311,-0.16576 0.36928,-0.0583 0.18616,0.10747 -0.0736,0.29331 0.13407,0.34895 0.20764,0.0556 0.0756,-0.23511 0.29058,-0.23511 0.21496,0 0.083,0.29074 0.29068,0.23511 0.20764,-0.0556 -0.0521,-0.24147 0.13407,-0.34895 0.18617,-0.10749 0.21728,0.21028 0.36928,0.0583 0.15201,-0.152 -0.16586,-0.18301 -0.0584,-0.36918 0.10748,-0.18617 0.29332,0.0735 0.34895,-0.13417 0.0556,-0.20764 -0.2351,-0.0756 -0.2351,-0.29058 0,-0.21496 0.29074,-0.083 0.2351,-0.29068 -0.0556,-0.20764 -0.24147,0.0521 -0.34895,-0.13406 -0.10748,-0.18617 0.21038,-0.21729 0.0584,-0.36929 -0.152,-0.152 -0.18311,0.16586 -0.36928,0.0584 -0.18616,-0.10749 0.0736,-0.29332 -0.13407,-0.34896 -0.20764,-0.0556 -0.0757,0.23511 -0.29068,0.23511 -0.20153,0 -0.0981,-0.25551 -0.25543,-0.24162 z m 0.26026,0.77368 c 0.0827,-10e-6 0.16488,0.034 0.22336,0.0925 0.0585,0.0585 0.0925,0.14064 0.0925,0.22334 0,0.0827 -0.034,0.16487 -0.0925,0.22334 -0.0585,0.0585 -0.14066,0.0925 -0.22336,0.0925 -0.0827,0 -0.16486,-0.034 -0.22332,-0.0925 -0.0585,-0.0585 -0.0925,-0.14064 -0.0925,-0.22333 0,-0.0827 0.034,-0.16485 0.0925,-0.22332 0.0585,-0.0585 0.14064,-0.0925 0.22332,-0.0925 z"
         style="fill:#ff5e00;fill-opacity:1;stroke-width:0.00852878px"
      />
    </g>
    <g id="cog-i-middle">
      <path
         d="m 85.625149,15.055626 c -0.01,9.4e-4 -0.0209,0.003 -0.0332,0.006 -0.19596,0.0525 0.0492,0.22789 -0.12654,0.32933 -0.17569,0.10142 -0.20506,-0.19855 -0.34851,-0.0551 -0.14345,0.14345 0.15644,0.17282 0.055,0.34852 -0.10144,0.17568 -0.27682,-0.0694 -0.32933,0.12652 -0.0525,0.19596 0.22198,0.0714 0.22198,0.27433 0,0.20288 -0.27449,0.0783 -0.22198,0.27424 0.0525,0.19596 0.22789,-0.0491 0.32933,0.12662 0.10144,0.1757 -0.19845,0.20497 -0.055,0.34842 0.14345,0.14346 0.17282,-0.15644 0.34851,-0.055 0.17569,0.10142 -0.0694,0.27681 0.12654,0.32932 0.19596,0.0525 0.0714,-0.22188 0.27423,-0.22188 0.20288,0 0.0784,0.27439 0.27433,0.22188 0.19596,-0.0525 -0.0492,-0.22789 0.12654,-0.32932 0.1757,-0.10145 0.20506,0.19845 0.34851,0.055 0.14346,-0.14345 -0.15653,-0.17272 -0.0551,-0.34842 0.10144,-0.1757 0.27682,0.0693 0.32933,-0.12662 0.0525,-0.19596 -0.22188,-0.0714 -0.22188,-0.27424 0,-0.20287 0.27439,-0.0784 0.22188,-0.27433 -0.0525,-0.19596 -0.22789,0.0492 -0.32933,-0.12652 -0.10144,-0.1757 0.19855,-0.20507 0.0551,-0.34852 -0.14345,-0.14345 -0.17281,0.15653 -0.34851,0.0551 -0.17569,-0.10145 0.0694,-0.27682 -0.12654,-0.32933 -0.19596,-0.0525 -0.0715,0.22188 -0.27433,0.22188 -0.19019,0 -0.0925,-0.24113 -0.24106,-0.22803 z m 0.24562,0.73016 c 0.0781,-10e-6 0.15561,0.0321 0.2108,0.0873 0.0552,0.0552 0.0873,0.13273 0.0873,0.21078 0,0.078 -0.0321,0.1556 -0.0873,0.21078 -0.0552,0.0552 -0.13275,0.0873 -0.2108,0.0873 -0.078,0 -0.15558,-0.0321 -0.21076,-0.0873 -0.0552,-0.0552 -0.0873,-0.13273 -0.0873,-0.21076 0,-0.078 0.0321,-0.15559 0.0873,-0.21077 0.0552,-0.0552 0.13273,-0.0873 0.21076,-0.0873 z"
         style="fill:#ff5e00;fill-opacity:1;stroke-width:0.00804908px"
      />
    </g>
    <g id="cog-i-t">
      <path
         d="m 86.778789,13.535306 c -0.013,10e-4 -0.0274,0.004 -0.0435,0.008 -0.25695,0.0689 0.0645,0.29881 -0.16592,0.43182 -0.23037,0.133 -0.26887,-0.26034 -0.45697,-0.0722 -0.18809,0.1881 0.20512,0.22661 0.0721,0.45698 -0.133,0.23036 -0.36297,-0.0911 -0.43181,0.1659 -0.0688,0.25695 0.29105,0.0937 0.29105,0.35971 0,0.26601 -0.3599,0.10263 -0.29105,0.35958 0.0688,0.25694 0.29881,-0.0644 0.43181,0.16603 0.13301,0.23038 -0.26021,0.26875 -0.0721,0.45685 0.1881,0.1881 0.2266,-0.20512 0.45697,-0.0721 0.23038,0.13299 -0.091,0.36295 0.16592,0.4318 0.25694,0.0689 0.0936,-0.29093 0.35957,-0.29093 0.26602,0 0.10276,0.35978 0.35971,0.29093 0.25694,-0.0689 -0.0645,-0.29881 0.16591,-0.4318 0.23037,-0.13303 0.26887,0.26021 0.45697,0.0721 0.1881,-0.1881 -0.20524,-0.22647 -0.0722,-0.45685 0.13301,-0.23038 0.36297,0.0909 0.43182,-0.16603 0.0688,-0.25695 -0.29094,-0.0936 -0.29094,-0.35958 0,-0.26601 0.35979,-0.10276 0.29094,-0.35971 -0.0688,-0.25694 -0.29881,0.0645 -0.43182,-0.1659 -0.133,-0.23037 0.26034,-0.26888 0.0722,-0.45698 -0.1881,-0.18809 -0.2266,0.20524 -0.45697,0.0722 -0.23037,-0.13302 0.091,-0.36297 -0.16591,-0.43182 -0.25695,-0.0689 -0.0937,0.29093 -0.35971,0.29093 -0.24938,0 -0.12133,-0.31617 -0.31608,-0.29899 z m 0.32206,0.95739 c 0.10232,0 0.20403,0.0421 0.27639,0.11447 0.0724,0.0723 0.1145,0.17405 0.1145,0.27638 -10e-6,0.10232 -0.0421,0.20402 -0.1145,0.27638 -0.0724,0.0723 -0.17406,0.11447 -0.27639,0.11447 -0.10231,0 -0.20401,-0.0421 -0.27636,-0.11449 -0.0724,-0.0723 -0.11447,-0.17403 -0.11448,-0.27636 0,-0.10231 0.0421,-0.204 0.11448,-0.27636 0.0724,-0.0723 0.17404,-0.11448 0.27636,-0.11448 z"
         style="fill:#ff5e00;fill-opacity:1;stroke-width:0.010554px"
      />
    </g>
    <g transform="translate(0.05,-0.0876183)">
      <g id="cog-t-top">
         <path
            d="m 87.548695,12.434236 c -0.01,9.9e-4 -0.0205,0.003 -0.0325,0.006 -0.19199,0.0515 0.0482,0.22326 -0.12397,0.32265 -0.17213,0.0994 -0.2009,-0.19452 -0.34145,-0.054 -0.14054,0.14054 0.15327,0.16932 0.0539,0.34145 -0.0994,0.17212 -0.2712,-0.068 -0.32265,0.12396 -0.0514,0.19199 0.21748,0.07 0.21748,0.26877 0,0.19876 -0.26892,0.0767 -0.21748,0.26868 0.0514,0.19198 0.22327,-0.0481 0.32265,0.12405 0.0994,0.17214 -0.19442,0.20081 -0.0539,0.34136 0.14055,0.14055 0.16932,-0.15326 0.34145,-0.0539 0.17213,0.0994 -0.068,0.2712 0.12397,0.32264 0.19199,0.0515 0.0699,-0.21738 0.26868,-0.21738 0.19876,0 0.0768,0.26883 0.26877,0.21738 0.19199,-0.0515 -0.0482,-0.22327 0.12396,-0.32264 0.17213,-0.0994 0.2009,0.19443 0.34144,0.0539 0.14055,-0.14055 -0.15335,-0.16922 -0.054,-0.34136 0.0994,-0.17213 0.27121,0.068 0.32265,-0.12405 0.0514,-0.19199 -0.21738,-0.0699 -0.21738,-0.26868 0,-0.19876 0.26883,-0.0768 0.21738,-0.26877 -0.0514,-0.19199 -0.22327,0.0482 -0.32265,-0.12396 -0.0994,-0.17213 0.19452,-0.20091 0.054,-0.34145 -0.14054,-0.14054 -0.16931,0.15336 -0.34144,0.054 -0.17213,-0.0994 0.068,-0.27121 -0.12396,-0.32265 -0.19199,-0.0515 -0.07,0.21738 -0.26877,0.21738 -0.18634,0 -0.0907,-0.23625 -0.23618,-0.2234 z m 0.24065,0.71535 c 0.0765,-10e-6 0.15245,0.0315 0.20652,0.0855 0.0541,0.0541 0.0855,0.13005 0.0855,0.20651 0,0.0765 -0.0315,0.15245 -0.0855,0.20651 -0.0541,0.0541 -0.13006,0.0855 -0.20652,0.0855 -0.0765,0 -0.15244,-0.0315 -0.2065,-0.0855 -0.0541,-0.0541 -0.0855,-0.13004 -0.0855,-0.2065 0,-0.0764 0.0315,-0.15243 0.0855,-0.20649 0.0541,-0.054 0.13005,-0.0855 0.2065,-0.0855 z"
            style="fill:#ff5e00;fill-opacity:1;stroke-width:0.00788593px"
         />
      </g>
    </g>
    <g id="cog-t-bottom">
      <path
         d="m 93.489437,20.57419 c -0.008,8.7e-4 -0.017,0.002 -0.027,0.005 -0.15946,0.0427 0.04,0.18545 -0.10297,0.268 -0.14297,0.0825 -0.16687,-0.16158 -0.2836,-0.0448 -0.11674,0.11673 0.1273,0.14063 0.0447,0.28361 -0.0825,0.14296 -0.22527,-0.0565 -0.268,0.10295 -0.0427,0.15946 0.18064,0.0581 0.18064,0.22324 0,0.16509 -0.22337,0.0637 -0.18064,0.22316 0.0427,0.15946 0.18545,-0.0399 0.268,0.10303 0.0825,0.14298 -0.16149,0.16679 -0.0447,0.28353 0.11673,0.11675 0.14063,-0.12729 0.2836,-0.0447 0.14297,0.0825 -0.0565,0.22526 0.10297,0.26799 0.15947,0.0427 0.058,-0.18056 0.22316,-0.18056 0.1651,0 0.0638,0.22329 0.22324,0.18056 0.15947,-0.0427 -0.04,-0.18545 0.10298,-0.26799 0.14297,-0.0825 0.16687,0.16149 0.2836,0.0447 0.11674,-0.11674 -0.12737,-0.14055 -0.0448,-0.28353 0.0825,-0.14297 0.22527,0.0564 0.26799,-0.10303 0.0428,-0.15947 -0.18055,-0.0581 -0.18055,-0.22316 0,-0.16509 0.22328,-0.0638 0.18055,-0.22324 -0.0427,-0.15947 -0.18544,0.04 -0.26799,-0.10295 -0.0825,-0.14298 0.16157,-0.16688 0.0448,-0.28361 -0.11673,-0.11674 -0.14063,0.12737 -0.2836,0.0448 -0.14298,-0.0826 0.0565,-0.22527 -0.10298,-0.268 -0.15946,-0.0427 -0.0581,0.18056 -0.22324,0.18056 -0.15477,0 -0.0753,-0.19623 -0.19617,-0.18556 z m 0.19988,0.59417 c 0.0635,0 0.12663,0.0261 0.17153,0.071 0.0449,0.0449 0.0711,0.10801 0.0711,0.17153 0,0.0635 -0.0262,0.12661 -0.0711,0.17152 -0.0449,0.0449 -0.10802,0.071 -0.17153,0.071 -0.0635,0 -0.12662,-0.0262 -0.17152,-0.071 -0.0449,-0.0449 -0.0711,-0.10801 -0.0711,-0.17151 0,-0.0635 0.0262,-0.12662 0.0711,-0.17152 0.0449,-0.0449 0.10801,-0.071 0.17152,-0.071 z"
         style="fill:#ff5e00;fill-opacity:1;stroke-width:0.00655007px"
      />
    </g>
    <g id="cog-e2">
      <path
         d="m 94.687879,19.880954 c -0.009,9.9e-4 -0.0194,0.003 -0.0308,0.006 -0.18159,0.0487 0.0455,0.21118 -0.11726,0.30519 -0.16282,0.094 -0.19003,-0.184 -0.32297,-0.0511 -0.13294,0.13294 0.14498,0.16015 0.051,0.32297 -0.094,0.16281 -0.25653,-0.0644 -0.30519,0.11724 -0.0487,0.1816 0.20571,0.0662 0.20571,0.25423 0,0.188 -0.25437,0.0725 -0.20571,0.25413 0.0487,0.18159 0.21119,-0.0455 0.30519,0.11733 0.094,0.16283 -0.18391,0.18994 -0.051,0.32288 0.13294,0.13295 0.16015,-0.14496 0.32297,-0.051 0.16281,0.094 -0.0644,0.25653 0.11726,0.30518 0.1816,0.0487 0.0661,-0.20561 0.25413,-0.20561 0.18801,0 0.0726,0.25427 0.25422,0.20561 0.1816,-0.0487 -0.0455,-0.21118 0.11727,-0.30518 0.16281,-0.094 0.19003,0.18391 0.32297,0.051 0.13294,-0.13294 -0.14505,-0.16005 -0.0511,-0.32288 0.094,-0.16281 0.25653,0.0643 0.30518,-0.11733 0.0487,-0.1816 -0.20561,-0.0661 -0.20561,-0.25413 0,-0.18801 0.25427,-0.0726 0.20561,-0.25423 -0.0486,-0.1816 -0.21118,0.0456 -0.30518,-0.11724 -0.094,-0.16282 0.18399,-0.19003 0.0511,-0.32297 -0.13294,-0.13294 -0.16016,0.14505 -0.32297,0.0511 -0.16282,-0.094 0.0644,-0.25653 -0.11727,-0.30519 -0.1816,-0.0487 -0.0662,0.20562 -0.25422,0.20562 -0.17625,0 -0.0857,-0.22346 -0.22339,-0.21132 z m 0.22761,0.67664 c 0.0724,-1e-5 0.14421,0.0298 0.19534,0.0809 0.0512,0.0511 0.0809,0.123 0.0809,0.19533 0,0.0723 -0.0298,0.14419 -0.0809,0.19533 -0.0511,0.0511 -0.12302,0.0809 -0.19534,0.0809 -0.0724,0 -0.14419,-0.0298 -0.19532,-0.0809 -0.0511,-0.0511 -0.0809,-0.12301 -0.0809,-0.19532 0,-0.0723 0.0298,-0.14419 0.0809,-0.19532 0.0512,-0.0511 0.123,-0.0809 0.19532,-0.0809 z"
         style="fill:#ff5e00;fill-opacity:1;stroke-width:0.00745915px"
      />
    </g>
  </g>
</svg>
